<svg xmlns="http://www.w3.org/2000/svg" viewBox="0 0 460 240" width="460" height="240" role="img"><defs><marker id="arrow" viewBox="0 0 10 10" refX="9" refY="5" markerWidth="6" markerHeight="6" orient="auto-start-reverse"><path d="M0,0 L10,5 L0,10 Z" fill="#222"/></marker></defs><rect width="100%" height="100%" fill="white"/><text x="120" y="20" font-family="Arial, sans-serif" font-size="15" text-anchor="middle" fill="#111">X</text><text x="345" y="20" font-family="Arial, sans-serif" font-size="15" text-anchor="middle" fill="#111">Y</text><line stroke="#222" stroke-width="1.8" fill="none" x1="65" y1="38" x2="175" y2="38"/><line stroke="#222" stroke-width="1.8" fill="none" x1="275" y1="38" x2="415" y2="38"/><polyline stroke="#222" stroke-width="1.8" fill="none" points="120,38 120,46 113,49.0625 127,55.1875 113,61.3125 127,67.4375 113,73.5625 127,79.6875 113,85.8125 127,91.9375 120,95 120,103"/><polyline stroke="#222" stroke-width="1.8" fill="none" points="120,103 120,111 113,114.0625 127,120.1875 113,126.3125 127,132.4375 113,138.5625 127,144.6875 113,150.8125 127,156.9375 120,160 120,168"/><circle stroke="#222" stroke-width="1.8" fill="#222" cx="120" cy="103" r="2.4"/><rect stroke="#222" stroke-width="1.8" fill="#eee" x="90" y="168" width="60" height="30"/><text x="120" y="189" font-family="Arial, sans-serif" font-size="15" text-anchor="middle" fill="#111">W</text><polyline stroke="#222" stroke-width="1.8" fill="none" points="310,38 310,46 303,50.625 317,59.875 303,69.125 317,78.375 303,87.625 317,96.875 303,106.125 317,115.375 310,120 310,128"/><polyline stroke="#222" stroke-width="1.8" fill="none" points="380,38 380,46 373,50.625 387,59.875 373,69.125 387,78.375 373,87.625 387,96.875 373,106.125 387,115.375 380,120 380,128"/><line stroke="#222" stroke-width="1.8" fill="none" x1="298" y1="128" x2="392" y2="128"/><line stroke="#222" stroke-width="1.8" fill="none" x1="345" y1="128" x2="345" y2="168"/><rect stroke="#222" stroke-width="1.8" fill="#eee" x="315" y="168" width="60" height="30"/><text x="345" y="189" font-family="Arial, sans-serif" font-size="15" text-anchor="middle" fill="#111">W</text><text x="120" y="223" font-family="Arial, sans-serif" font-size="13" text-anchor="middle" fill="#111">series</text><text x="345" y="223" font-family="Arial, sans-serif" font-size="13" text-anchor="middle" fill="#111">parallel</text></svg>